<svg width="125" height="122" viewBox="0 0 125 122" fill="none" xmlns="http://www.w3.org/2000/svg">
<rect x="2" y="2" width="55" height="55" fill="#FFCC48"/>
<path d="M24.0503 31.9522C24.0503 31.9522 74.8146 2.45657 74.024 2L74.0258 61.8573" stroke="black" stroke-width="3" stroke-linecap="round" stroke-linejoin="round"/>
<path d="M74.0239 2L74.0257 61.8573C77.046 63.5602 123.252 88.5441 123.252 88.5441L123.253 31.9522C123.253 31.9522 73.2324 2.45657 74.0239 2Z" fill="black" stroke="black" stroke-width="3" stroke-linecap="round" stroke-linejoin="round"/>
<path d="M24.0532 31.9526L74.0258 61.8576L74.0238 120.077L36.2277 96.2318" stroke="black" stroke-width="3" stroke-linecap="round" stroke-linejoin="round"/>
<path d="M123.244 31.9521L123.24 88.544C120.22 90.247 74.0244 120.077 74.0244 120.077L74.0261 61.8572C74.0261 61.8572 124.035 32.4096 123.244 31.9521Z" fill="white" stroke="black" stroke-width="3" stroke-linecap="round" stroke-linejoin="round"/>
<path d="M116.728 51.4793L116.684 92.6548C113.664 94.3578 95.5098 106.229 95.5098 106.229V64.5221C95.5098 63.2928 96.1488 62.1518 97.1973 61.5102L115.088 50.5585C115.806 50.119 116.729 50.6364 116.728 51.4793Z" fill="black" stroke="black" stroke-width="3" stroke-linecap="round" stroke-linejoin="round"/>
<path d="M1.99951 62.0535C4.49823 64.1179 6.09149 67.2402 6.09149 70.7343C6.09149 74.1025 4.61218 77.1246 2.26764 79.1865" stroke="black" stroke-width="3" stroke-linecap="round" stroke-linejoin="round"/>
<path d="M7.42041 57.5811C10.7413 60.7231 12.858 65.4756 12.858 70.7943C12.858 75.9202 10.8922 80.5202 7.77661 83.6588" stroke="black" stroke-width="3" stroke-linecap="round" stroke-linejoin="round"/>
<path d="M12.8579 53.1814C17.266 57.3831 20.0748 63.7391 20.0748 70.8532C20.0748 77.7087 17.4656 83.86 13.3317 88.0582" stroke="black" stroke-width="3" stroke-linecap="round" stroke-linejoin="round"/>
<path d="M17.8896 47.0815C23.9878 52.7531 27.8751 61.3329 27.8751 70.9347C27.8751 80.1878 24.2654 88.4917 18.5449 94.1582" stroke="black" stroke-width="3" stroke-linecap="round" stroke-linejoin="round"/>
<line x1="38.3671" y1="52.8359" x2="62.0396" y2="82.0511" stroke="black" stroke-width="3" stroke-linecap="round" stroke-linejoin="round"/>
<line x1="40.3813" y1="68.6088" x2="51.2732" y2="82.051" stroke="black" stroke-width="3" stroke-linecap="round" stroke-linejoin="round"/>
<line x1="58.8607" y1="91.0881" x2="61.319" y2="94.1219" stroke="black" stroke-width="3" stroke-linecap="round" stroke-linejoin="round"/>
<path d="M118.167 74.8735C118.223 74.2018 118.106 73.5559 117.843 73.0512C117.584 72.5532 117.142 72.1259 116.537 72.0752C115.931 72.0245 115.424 72.3722 115.086 72.8202C114.743 73.2742 114.519 73.8915 114.463 74.5631C114.407 75.2348 114.525 75.8807 114.787 76.3854C115.046 76.8834 115.488 77.3107 116.094 77.3614C116.699 77.4122 117.206 77.0644 117.544 76.6164C117.887 76.1624 118.111 75.5451 118.167 74.8735Z" fill="white" stroke="black" stroke-linecap="round" stroke-linejoin="round"/>
</svg>
