<svg width="124" height="123" viewBox="0 0 124 123" fill="none" xmlns="http://www.w3.org/2000/svg">
<rect x="67" y="2" width="55" height="55" fill="#FFCC48"/>
<path d="M24.0083 23.5271H83.2245L74.175 69.0608H32.7631L24.0083 23.5271Z" stroke="black" stroke-width="3" stroke-linecap="round" stroke-linejoin="round"/>
<path d="M99.7499 23.5271L77.7388 51.1299L83.2249 23.5271H99.7499Z" stroke="black" stroke-width="3" stroke-linecap="round" stroke-linejoin="round"/>
<path d="M2.01318 31.8348V57.8216C2.01318 60.6909 4.33936 63.0157 7.2074 63.0157H13.5959C15.5741 63.0157 17.1781 61.4124 17.1781 59.4343C17.1781 57.9838 16.303 56.6759 14.9617 56.1231L14.9113 56.1017C12.5928 55.1453 11.0807 52.8856 11.0807 50.378V37.1586C11.0807 34.0879 13.5698 31.599 16.6405 31.599H25.6462L24.0085 23.5271H10.3208C5.73267 23.5271 2.01318 27.2466 2.01318 31.8348Z" fill="black" stroke="black" stroke-width="3" stroke-linecap="round" stroke-linejoin="round"/>
<rect x="36.9023" y="69.0608" width="33.3125" height="10.25" fill="black" stroke="black" stroke-width="3" stroke-linecap="round" stroke-linejoin="round"/>
<path d="M49.0098 11.6873L24.0083 23.5271H83.2245L58.7991 11.6873H49.0098Z" stroke="black" stroke-width="3" stroke-linecap="round" stroke-linejoin="round"/>
<path d="M32.5658 79.3108H74.1749L82.3806 120.705H24.3047L32.5658 79.3108Z" stroke="black" stroke-width="3" stroke-linecap="round" stroke-linejoin="round"/>
<path d="M74.1748 83.5337H119.278V99.5449C119.278 106.224 113.864 111.638 107.186 111.638H86.2676C79.5889 111.638 74.1748 106.224 74.1748 99.5449V83.5337Z" fill="black" stroke="black" stroke-width="3" stroke-linecap="round" stroke-linejoin="round"/>
<path d="M72.3833 111.638H122.254V112.005C122.254 116.81 118.358 120.705 113.554 120.705H81.0831C76.2783 120.705 72.3833 116.81 72.3833 112.005V111.638Z" fill="black" stroke="black" stroke-width="3" stroke-linecap="round" stroke-linejoin="round"/>
<path d="M56.1279 12.8308L61.8739 22.9317L60.5559 51.8527" stroke="black" stroke-width="3" stroke-linecap="round" stroke-linejoin="round"/>
<line x1="61.4232" y1="62.7982" x2="61.2042" y2="67.3781" stroke="black" stroke-width="3" stroke-linecap="round" stroke-linejoin="round"/>
<line x1="60.2558" y1="90.2835" x2="59.4839" y2="80.9289" stroke="black" stroke-width="3" stroke-linecap="round" stroke-linejoin="round"/>
<line x1="62.7702" y1="119.337" x2="61.2611" y2="101.465" stroke="black" stroke-width="3" stroke-linecap="round" stroke-linejoin="round"/>
<path d="M50.9562 12.8308L45.21 22.9317L46.528 51.8527" stroke="black" stroke-width="3" stroke-linecap="round" stroke-linejoin="round"/>
<line x1="48.6578" y1="62.6549" x2="48.8769" y2="67.2347" stroke="black" stroke-width="3" stroke-linecap="round" stroke-linejoin="round"/>
<line x1="43.8389" y1="90.0368" x2="44.6107" y2="80.6823" stroke="black" stroke-width="3" stroke-linecap="round" stroke-linejoin="round"/>
<line x1="41.3249" y1="119.084" x2="42.834" y2="101.213" stroke="black" stroke-width="3" stroke-linecap="round" stroke-linejoin="round"/>
<path d="M111.215 91.6555V100.008C111.215 102.22 109.422 104.014 107.209 104.014H106.441" stroke="white" stroke-width="3" stroke-linecap="round" stroke-linejoin="round"/>
<path d="M107.814 60.5845L105.317 64.7812C104.507 66.1422 104.622 67.8621 105.606 69.1038C106.582 70.3334 106.704 72.0346 105.915 73.3919L104.178 76.3815" stroke="black" stroke-width="3" stroke-linecap="round" stroke-linejoin="round"/>
<path d="M98.1122 60.5845L95.6147 64.7812C94.8049 66.1422 94.9194 67.8621 95.9038 69.1038C96.8796 70.3334 97.0018 72.0346 96.2133 73.3919L94.4756 76.3815" stroke="black" stroke-width="3" stroke-linecap="round" stroke-linejoin="round"/>
<path d="M87.8617 60.5845L85.3633 64.7812C84.5532 66.1422 84.6678 67.8621 85.6533 69.1038C86.6284 70.3334 86.7515 72.0346 85.9618 73.3919L84.2241 76.3815" stroke="black" stroke-width="3" stroke-linecap="round" stroke-linejoin="round"/>
<circle cx="53.5583" cy="7.58707" r="6.07584" fill="white" stroke="black" stroke-width="3" stroke-linecap="round" stroke-linejoin="round"/>
</svg>
