<svg xmlns="http://www.w3.org/2000/svg" width="69.817" height="18.29" viewBox="0 0 69.817 18.29"><defs><style>.a{fill:#fff;}</style></defs><g transform="translate(-0.023 -0.1)"><g transform="translate(59.758 0.1)"><path class="a" d="M136.66,2.82h0a1.361,1.361,0,0,1-1.36-1.36h0A1.361,1.361,0,0,1,136.66.1h0a1.361,1.361,0,0,1,1.36,1.36h0A1.361,1.361,0,0,1,136.66,2.82Z" transform="translate(-131.595 -0.1)"/><path class="a" d="M128.76,2.82h0a1.361,1.361,0,0,1-1.36-1.36h0A1.361,1.361,0,0,1,128.76.1h0a1.361,1.361,0,0,1,1.36,1.36h0A1.332,1.332,0,0,1,128.76,2.82Z" transform="translate(-127.4 -0.1)"/><path class="a" d="M136.66,10.62h0a1.361,1.361,0,0,1-1.36-1.36h0a1.361,1.361,0,0,1,1.36-1.36h0a1.361,1.361,0,0,1,1.36,1.36h0A1.361,1.361,0,0,1,136.66,10.62Z" transform="translate(-131.595 -4.242)"/><path class="a" d="M144.46,10.62h0a1.361,1.361,0,0,1-1.36-1.36h0a1.361,1.361,0,0,1,1.36-1.36h0a1.361,1.361,0,0,1,1.36,1.36h0A1.361,1.361,0,0,1,144.46,10.62Z" transform="translate(-135.737 -4.242)"/><path class="a" d="M144.46,18.52h0a1.361,1.361,0,0,1-1.36-1.36h0a1.361,1.361,0,0,1,1.36-1.36h0a1.361,1.361,0,0,1,1.36,1.36h0A1.392,1.392,0,0,1,144.46,18.52Z" transform="translate(-135.737 -8.437)"/><path class="a" d="M144.46,2.82h0a1.361,1.361,0,0,1-1.36-1.36h0A1.361,1.361,0,0,1,144.46.1h0a1.361,1.361,0,0,1,1.36,1.36h0A1.361,1.361,0,0,1,144.46,2.82Z" transform="translate(-135.737 -0.1)"/></g><g transform="translate(0.023 5.587)"><path class="a" d="M2.17,24.556H.294c-.234,0-.328-.141-.234-.422L3.2,12.222a.57.57,0,0,1,.61-.422H6.437a.57.57,0,0,1,.61.422l3.142,11.912c.094.281,0,.422-.234.422H7.985a.4.4,0,0,1-.281-.094,1.12,1.12,0,0,1-.141-.328L7,21.976H3.154l-.563,2.157c-.047.141-.047.281-.141.328A.4.4,0,0,1,2.17,24.556ZM5.077,14.192,3.67,19.913H6.578L5.171,14.192Z" transform="translate(-0.023 -11.8)"/><path class="a" d="M47.91,27.53H46.222a.373.373,0,0,1-.422-.422V17.822a.373.373,0,0,1,.422-.422H47.91a.373.373,0,0,1,.422.422v.657h.094a1.556,1.556,0,0,1,.75-.8,2.542,2.542,0,0,1,1.172-.281h.7c.281,0,.375.141.375.422v1.36a.547.547,0,0,1-.094.328c-.047.047-.141.094-.328.047h-1.36c-.891,0-1.36.516-1.36,1.548v5.956C48.285,27.389,48.145,27.53,47.91,27.53Z" transform="translate(-24.333 -14.774)"/><path class="a" d="M67.844,27.53H63.483a3.427,3.427,0,0,1-2.439-.844,3.057,3.057,0,0,1-.844-2.392V20.636a3.235,3.235,0,0,1,.844-2.392,3.277,3.277,0,0,1,2.439-.844H65.03a3.427,3.427,0,0,1,2.439.844,3.235,3.235,0,0,1,.844,2.392v2.532a.373.373,0,0,1-.422.422H62.92a.222.222,0,0,0-.234.234v.422a1.013,1.013,0,0,0,1.172,1.172h3.986a.373.373,0,0,1,.422.422v1.313a.678.678,0,0,1-.094.328A2.644,2.644,0,0,1,67.844,27.53ZM62.92,21.9h2.673a.222.222,0,0,0,.234-.234V20.73a1.449,1.449,0,0,0-.234-.891A1.2,1.2,0,0,0,64.7,19.6h-.844a1.449,1.449,0,0,0-.891.234,1.2,1.2,0,0,0-.234.891v.938C62.685,21.808,62.779,21.9,62.92,21.9Z" transform="translate(-31.979 -14.774)"/><path class="a" d="M84.552,27.53h-.469a3.427,3.427,0,0,1-2.439-.844,3.235,3.235,0,0,1-.844-2.392V20.636a3.235,3.235,0,0,1,.844-2.392,3.277,3.277,0,0,1,2.439-.844h4.6a.373.373,0,0,1,.422.422v9.285a.373.373,0,0,1-.422.422H86.99a.373.373,0,0,1-.422-.422v-.657h-.094a1.556,1.556,0,0,1-.75.8A2.689,2.689,0,0,1,84.552,27.53Zm2.017-3.7V19.792a.222.222,0,0,0-.234-.234H84.458a.961.961,0,0,0-1.125,1.172v3.423a1.449,1.449,0,0,0,.234.891,1.194,1.194,0,0,0,.891.281h.75C86.1,25.372,86.568,24.856,86.568,23.825Z" transform="translate(-42.919 -14.774)"/><path class="a" d="M104.11,27.53h-1.688a.373.373,0,0,1-.422-.422V17.822a.373.373,0,0,1,.422-.422h1.688a.373.373,0,0,1,.422.422v.657h.094a1.564,1.564,0,0,1,.8-.75,2.855,2.855,0,0,1,1.313-.281h.563a2.66,2.66,0,0,1,2.485,1.266,2.411,2.411,0,0,1,2.3-1.266h.563a2.941,2.941,0,0,1,2.3.844,3.42,3.42,0,0,1,.8,2.392v6.472a.373.373,0,0,1-.422.422H113.63a.373.373,0,0,1-.422-.422V20.777a1.449,1.449,0,0,0-.234-.891,1.194,1.194,0,0,0-.891-.281h-.516c-.891,0-1.36.516-1.36,1.548v6a.373.373,0,0,1-.422.422H108.1a.373.373,0,0,1-.422-.422V20.777A1.013,1.013,0,0,0,106.5,19.6h-.61c-.891,0-1.36.516-1.36,1.5v6A.373.373,0,0,1,104.11,27.53Z" transform="translate(-54.177 -14.774)"/><path class="a" d="M28.408,11.8H24.422a.373.373,0,0,0-.422.422V24.134a.373.373,0,0,0,.422.422h3.986a4.274,4.274,0,0,0,4.174-4.314V16.114A4.306,4.306,0,0,0,28.408,11.8Zm1.641,8.441a1.837,1.837,0,0,1-1.735,1.782H26.485V14.332h1.829a1.8,1.8,0,0,1,1.735,1.782Z" transform="translate(-12.756 -11.8)"/></g></g></svg>