<svg width="130" height="133" viewBox="0 0 130 133" fill="none" xmlns="http://www.w3.org/2000/svg">
<rect x="75" y="78" width="55" height="55" fill="#FFCC48"/>
<path d="M96.378 55.9321H87.968C88.254 55.3121 88.424 54.6441 88.468 53.9621L88.471 53.1931H90.448C92.708 53.1931 94.547 51.3541 94.547 49.0931V45.5561C94.547 43.2951 92.708 41.4551 90.448 41.4551H87.134C86.897 41.4551 86.676 41.5151 86.477 41.6131H75.557C74.32 41.6151 73.318 42.6171 73.317 43.8531V53.6041C73.316 54.4081 73.49 55.2021 73.826 55.9321H44.591H44.373C44.382 55.8891 44.398 55.8491 44.404 55.8051L46.228 43.3061C46.25 43.1571 46.261 43.0071 46.261 42.8581C46.262 42.0371 45.942 41.2651 45.362 40.6831C44.781 40.1021 44.009 39.7831 43.188 39.7831H37.888V36.8181L37.897 36.8191H39.992C43.975 36.8191 47.215 33.5791 47.215 29.5961V27.5001C47.215 25.8431 45.872 24.5001 44.215 24.5001H42.119C40.358 24.5001 38.744 25.1361 37.489 26.1871C36.825 22.8851 33.903 20.3901 30.409 20.3901H26.732C25.075 20.3901 23.732 21.7341 23.732 23.3901V27.0671C23.732 31.0481 26.971 34.2881 30.955 34.2901H34.632C34.72 34.2901 34.802 34.2711 34.888 34.2641V39.7831H29.593C29.46 39.7831 29.339 39.7891 29.218 39.8041C27.534 40.0021 26.326 41.5321 26.524 43.2181L28.011 55.7231C28.02 55.7951 28.043 55.8621 28.056 55.9321H12.174C5.45399 55.9401 0.00799561 61.3851 0 68.1051V105.085C0.00799561 111.806 5.453 117.252 12.174 117.259H17.066L15.346 126.41C15.104 127.69 15.446 129.01 16.279 130.01C17.108 131.013 18.342 131.593 19.644 131.591C21.829 131.584 23.781 130.223 24.544 128.174L28.576 117.259H79.976L84.008 128.174C84.77 130.223 86.722 131.584 88.908 131.591C90.209 131.593 91.443 131.013 92.273 130.01C93.105 129.01 93.447 127.689 93.205 126.41L91.486 117.259H96.378C103.098 117.252 108.544 111.806 108.551 105.085V68.1051C108.543 61.3861 103.097 55.9401 96.378 55.9321ZM26.732 23.3901H30.409C32.738 23.3901 34.632 25.2841 34.632 27.6131V31.2901H30.955C28.626 31.2891 26.732 29.3951 26.732 27.0671V23.3901ZM42.119 27.5001H44.215V29.5961C44.215 31.9251 42.321 33.8191 39.992 33.8191H37.897V31.7231C37.897 29.3951 39.791 27.5001 42.119 27.5001ZM36.378 42.7831L36.388 42.7841L36.397 42.7831H43.188C43.223 42.7831 43.261 42.8221 43.26 42.8661L41.363 55.4341L30.991 55.3691L29.503 42.8651C29.499 42.8301 29.534 42.7871 29.572 42.7831H29.577H29.588H36.378ZM97.518 102.759C97.518 104.384 96.196 105.706 94.57 105.706H55.825V88.0151H69.336C69.888 91.1661 72.638 93.5701 75.945 93.5701H79.665C82.972 93.5701 85.722 91.1661 86.274 88.0151H97.518V102.759ZM94.57 67.3211C96.196 67.3211 97.518 68.6431 97.518 70.2691V85.0141H55.825V67.3211H69.336C69.888 70.4731 72.638 72.8781 75.945 72.8781H79.665C82.972 72.8781 85.722 70.4731 86.274 67.3211H94.57ZM83.196 88.0151C82.707 89.4971 81.309 90.5701 79.665 90.5701H75.945C74.301 90.5701 72.903 89.4971 72.415 88.0151H83.196ZM79.665 69.8781H75.945C74.3 69.8781 72.903 68.8051 72.415 67.3211H83.196C82.707 68.8051 81.309 69.8781 79.665 69.8781ZM23.598 67.3211C24.15 70.4731 26.9 72.8781 30.207 72.8781H33.928C37.235 72.8781 39.985 70.4731 40.537 67.3211H52.778V85.0141H11.085V70.2691C11.085 68.6431 12.407 67.3211 14.033 67.3211H23.598ZM37.458 88.0151C36.97 89.4971 35.571 90.5701 33.927 90.5701H30.207C28.563 90.5701 27.165 89.4971 26.676 88.0151H37.458ZM26.676 67.3211H37.459C36.97 68.8051 35.572 69.8781 33.927 69.8781H30.207C28.562 69.8781 27.164 68.8051 26.676 67.3211ZM11.085 88.0151H23.598C24.15 91.1661 26.9 93.5701 30.207 93.5701H33.928C37.235 93.5701 39.985 91.1661 40.537 88.0151H52.778V105.706H14.033C12.407 105.706 11.085 104.384 11.085 102.759V88.0151ZM91.547 45.5561V49.0931C91.547 49.7001 91.054 50.1931 90.448 50.1931H88.481V44.4551H90.448C91.054 44.4551 91.547 44.9491 91.547 45.5561Z" fill="black"/>
<path d="M56.04 19.6593C59.7 19.6593 62.678 22.6373 62.679 26.2973C62.679 27.1253 63.351 27.7963 64.179 27.7963C65.007 27.7963 65.679 27.1243 65.679 26.2963C65.679 22.6373 68.657 19.6593 72.316 19.6593C73.144 19.6593 73.816 18.9873 73.816 18.1593C73.816 17.3303 73.145 16.6593 72.316 16.6593C68.657 16.6583 65.679 13.6803 65.679 10.0203C65.679 9.19226 65.007 8.52026 64.179 8.52026C63.351 8.52026 62.679 9.19226 62.679 10.0203C62.678 13.6813 59.7 16.6593 56.04 16.6593C55.211 16.6593 54.54 17.3303 54.54 18.1593C54.54 18.9873 55.211 19.6593 56.04 19.6593ZM64.179 15.1793C64.941 16.3763 65.96 17.3963 67.159 18.1593C65.96 18.9203 64.941 19.9403 64.179 21.1383C63.416 19.9403 62.397 18.9213 61.199 18.1593C62.397 17.3963 63.416 16.3773 64.179 15.1793Z" fill="black"/>
<path d="M68.9028 4.81818C70.5078 4.81818 71.8138 6.12418 71.8138 7.72918C71.8138 8.00618 72.0378 8.22918 72.3138 8.22918C72.5898 8.22918 72.8138 8.00618 72.8138 7.72918C72.8138 6.12418 74.1198 4.81918 75.7248 4.81818C76.0008 4.81818 76.2248 4.59418 76.2248 4.31818C76.2248 4.04218 76.0008 3.81818 75.7248 3.81818C74.1198 3.81818 72.8138 2.51318 72.8138 0.90818C72.8138 0.632179 72.5898 0.40918 72.3138 0.40918C72.0388 0.40918 71.8148 0.632179 71.8138 0.90818C71.8128 2.51318 70.5068 3.81818 68.9038 3.81818H68.9028C68.6258 3.81818 68.4028 4.04218 68.4028 4.31818C68.4028 4.59418 68.6258 4.81818 68.9028 4.81818Z" fill="black"/>
<path d="M75.7269 22.3853C75.4509 22.3853 75.2269 22.6083 75.2269 22.8853C75.2269 24.4903 73.9219 25.7953 72.3179 25.7953H72.3169C72.0409 25.7963 71.8179 26.0203 71.8179 26.2953C71.8179 26.5713 72.0399 26.7943 72.3159 26.7953H72.3179C73.9219 26.7963 75.2269 28.1013 75.2269 29.7063C75.2269 29.9833 75.4509 30.2063 75.7269 30.2063C76.0029 30.2063 76.2269 29.9833 76.2269 29.7063C76.2269 28.1013 77.5329 26.7953 79.1379 26.7953C79.4149 26.7953 79.6379 26.5723 79.6379 26.2953C79.6379 26.0193 79.4149 25.7953 79.1379 25.7953C77.5329 25.7953 76.2269 24.4903 76.2269 22.8853C76.2269 22.6083 76.0029 22.3853 75.7269 22.3853Z" fill="black"/>
</svg>
