<svg width="134" height="104" viewBox="0 0 134 104" fill="none" xmlns="http://www.w3.org/2000/svg">
<rect x="2" y="49" width="55" height="55" fill="#FFCC48"/>
<path d="M102.325 102.435H129.989H132V88.4459C132 86.1443 130.829 84.001 128.892 82.7581L121.136 78.1079L115.682 82.1351C113.801 83.4015 111.357 83.4658 109.412 82.2981L103.529 78.1079L96.811 81.7417L99.3743 83.7197C101.235 85.1553 102.325 87.3723 102.325 89.7225V102.435Z" fill="black" stroke="black" stroke-width="3" stroke-linecap="round" stroke-linejoin="round"/>
<path d="M93.7749 29.4256C93.1605 21.1032 90.2264 14.1326 85.2902 9.26841C80.4636 4.51397 73.9664 2 66.499 2C59.0323 2 52.5343 4.51397 47.7085 9.26841C42.7714 14.1326 39.8374 21.1032 39.2237 29.4264C37.5577 51.9832 35.6628 64.5609 34.9246 68.9211C34.9137 68.9877 34.9364 69.0175 34.9763 69.0434C36.9849 70.3435 42.9564 73.9091 49.7679 75.7319L66.499 72.2854L84.212 75.7319C91.0203 73.9099 96.0107 70.345 98.0223 69.0434C98.0622 69.0175 98.085 68.9877 98.0732 68.9211C97.3358 64.5601 95.4401 51.9816 93.7749 29.4256ZM87.6929 42.7494C87.6929 54.2809 78.6684 64.0413 67.1414 64.3838C55.1641 64.7395 45.3065 55.099 45.3065 43.2V41.3701C45.3065 40.5293 45.772 39.7597 46.5524 39.3099L46.6356 39.2621C51.2332 36.5867 54.2753 31.8659 54.9893 26.5943L55.2957 24.3342C71.3396 25.9384 82.0842 32.0187 86.0871 35.5005C87.1075 36.3876 87.6929 37.6995 87.6929 39.0983V42.7494Z" fill="black" stroke="black" stroke-width="3" stroke-linecap="round" stroke-linejoin="round"/>
<path d="M66.4996 64.2913C70.1829 64.2913 73.7014 63.5766 76.927 62.2812V68.0403C76.927 71.0214 78.6886 73.7258 81.4158 74.9303L84.9086 76.4725C81.3844 83.3538 74.3386 87.7117 66.4996 87.7117C58.6897 87.7117 51.6166 83.3459 48.0894 76.4733L51.5836 74.9303C54.3099 73.7258 56.0724 71.0214 56.0724 68.0403V62.2812C59.2971 63.5766 62.8165 64.2913 66.4996 64.2913Z" fill="white" stroke="black" stroke-width="3" stroke-linecap="round" stroke-linejoin="round"/>
<path d="M84.9087 76.4724L97.8906 82.2197C100.584 83.4093 102.325 86.0808 102.325 89.025V102.435" stroke="black" stroke-width="3" stroke-linecap="round" stroke-linejoin="round"/>
<path d="M30.333 102.435V89.0251C30.333 86.0809 32.0735 83.4094 34.767 82.2198L49.7677 75.7319" stroke="black" stroke-width="3" stroke-linecap="round" stroke-linejoin="round"/>
<line x1="46.8062" y1="95.4602" x2="46.8062" y2="100.935" stroke="black" stroke-width="3" stroke-linecap="round" stroke-linejoin="round"/>
<line x1="89.1929" y1="95.4602" x2="89.1929" y2="100.935" stroke="black" stroke-width="3" stroke-linecap="round" stroke-linejoin="round"/>
<path d="M106.813 54.8717C108.072 53.6124 108.812 52.3342 109.246 51.2551C113.014 52.3742 120.998 54.6358 125.141 61.264" stroke="black" stroke-width="3" stroke-linecap="round" stroke-linejoin="round"/>
<path d="M128.162 53.1337C128.162 44.6568 121.29 37.7842 112.813 37.7842C104.336 37.7842 97.4644 44.6568 97.4644 53.1337C97.4644 56.639 98.6523 59.8598 100.63 62.4443C101.645 68.107 106.585 72.4077 112.54 72.4077C118.172 72.4077 122.892 68.5568 124.247 63.3486C126.673 60.6332 128.162 57.0613 128.162 53.1337Z" stroke="black" stroke-width="3" stroke-linecap="round" stroke-linejoin="round"/>
<path d="M103.758 40.2282C103.612 39.5856 103.536 38.918 103.536 38.2315C103.536 33.2545 107.57 29.2202 112.547 29.2202C117.524 29.2202 121.559 33.2545 121.559 38.2315C121.559 38.8537 121.495 39.461 121.375 40.0472" stroke="black" stroke-width="3" stroke-linecap="round" stroke-linejoin="round"/>
<path d="M119.042 70.5073V74.5925C119.042 76.0603 119.846 77.4098 121.136 78.108L128.688 82.1924C130.728 83.2966 132 85.4305 132 87.7501V102.435" stroke="black" stroke-width="3" stroke-linecap="round" stroke-linejoin="round"/>
<path d="M105.624 70.5073V74.5925C105.624 76.0603 104.82 77.4098 103.529 78.108L96.811 81.7418" stroke="black" stroke-width="3" stroke-linecap="round" stroke-linejoin="round"/>
<path d="M120.578 78.1213L115.919 81.6893C113.93 83.2135 111.163 83.2096 109.178 81.6791L104.563 78.1213" stroke="black" stroke-width="3" stroke-linecap="round" stroke-linejoin="round"/>
<line x1="124.644" y1="93.4785" x2="124.644" y2="102.268" stroke="white" stroke-width="3" stroke-linecap="round" stroke-linejoin="round"/>
<path d="M35.6321 55.5473V59.7579C35.6321 66.6768 30.0234 72.2854 23.1045 72.2854C16.1855 72.2854 10.5763 66.6768 10.5763 59.7579L10.6444 55.4987C9.396 53.752 8.72998 51.564 8.72998 49.253C8.72998 43.3583 13.5087 38.5796 19.4032 38.5796H38.4969" stroke="black" stroke-width="3" stroke-linecap="round" stroke-linejoin="round"/>
<path d="M29.549 51.4387C25.821 48.5807 16.624 48.9529 16.624 48.9529" stroke="black" stroke-width="3" stroke-linecap="round" stroke-linejoin="round"/>
<path d="M30.0879 70.7854V73.1912C30.0879 74.9623 31.2422 76.5265 32.9349 77.0484L41.1068 79.5671" stroke="black" stroke-width="3" stroke-linecap="round" stroke-linejoin="round"/>
<path d="M16.6904 70.519V73.1874C16.6904 74.9608 15.5337 76.5258 13.8387 77.0461L7.08582 79.1204C4.06335 80.0483 2 82.8397 2 86.0017V102.435" stroke="black" stroke-width="3" stroke-linecap="round" stroke-linejoin="round"/>
<path d="M16.6904 76.1705L23.4188 82.6331L30.0876 75.8391" stroke="black" stroke-width="3" stroke-linecap="round" stroke-linejoin="round"/>
<line x1="12.0762" y1="91.1758" x2="12.0762" y2="100.935" stroke="black" stroke-width="3" stroke-linecap="round" stroke-linejoin="round"/>
<line x1="24.9189" y1="84.1331" x2="24.9189" y2="100.935" stroke="black" stroke-width="3" stroke-linecap="round" stroke-linejoin="round"/>
</svg>
