<svg width="290" height="69" viewBox="0 0 290 69" fill="none" xmlns="http://www.w3.org/2000/svg">
<rect y="64.4614" width="72.4973" height="4.26407" fill="white"/>
<rect y="55.9331" width="72.4973" height="4.26407" fill="white"/>
<rect y="47.4028" width="72.4973" height="4.26407" fill="white"/>
<rect y="38.875" width="72.4973" height="4.26407" fill="white"/>
<rect y="30.3467" width="72.4973" height="4.26407" fill="white"/>
<rect y="26.0791" width="72.4973" height="4.26661" fill="black"/>
<rect y="17.5513" width="72.4973" height="4.26407" fill="black"/>
<rect y="9.02295" width="72.4973" height="4.26407" fill="black"/>
<rect y="0.495117" width="72.4973" height="4.26407" fill="black"/>
<rect x="72.5054" y="0.495605" width="4.26408" height="29.8514" fill="black"/>
<rect x="72.5054" y="30.3467" width="4.26408" height="38.3787" fill="white"/>
<rect x="81.0332" y="0.495605" width="4.26408" height="68.2301" fill="black"/>
<rect x="89.561" y="0.495605" width="4.26408" height="68.2301" fill="black"/>
<rect x="98.0918" y="0.495605" width="4.26408" height="68.2301" fill="black"/>
<rect x="106.62" y="0.495605" width="4.26408" height="68.2301" fill="black"/>
<rect x="115.148" y="0.495605" width="4.26408" height="68.2301" fill="black"/>
<rect x="123.679" y="0.495605" width="4.26158" height="68.2301" fill="black"/>
<rect x="132.208" y="0.495605" width="4.26408" height="68.2301" fill="black"/>
<rect x="140.736" y="0.495605" width="4.26408" height="68.2301" fill="black"/>
<rect x="81.0332" y="30.3472" width="4.26408" height="38.3785" fill="white"/>
<rect x="89.561" y="30.3472" width="4.26408" height="38.3785" fill="white"/>
<rect x="98.0918" y="30.3472" width="4.26408" height="38.3785" fill="white"/>
<rect x="106.62" y="30.3472" width="4.26408" height="38.3785" fill="white"/>
<rect x="115.148" y="30.3472" width="4.26408" height="38.3785" fill="white"/>
<rect x="123.679" y="30.3472" width="4.26158" height="38.3785" fill="white"/>
<rect x="132.208" y="30.3472" width="4.26408" height="38.3785" fill="white"/>
<rect x="140.736" y="30.3472" width="4.26408" height="38.3785" fill="white"/>
<rect x="145" y="64.4614" width="72.4973" height="4.26407" fill="white"/>
<rect x="145" y="55.9331" width="72.4973" height="4.26407" fill="white"/>
<rect x="145" y="47.4028" width="72.4973" height="4.26407" fill="white"/>
<rect x="145" y="38.875" width="72.4973" height="4.26407" fill="white"/>
<rect x="145" y="30.3467" width="72.4973" height="4.26407" fill="white"/>
<rect x="145" y="26.0791" width="72.4973" height="4.26661" fill="black"/>
<rect x="145" y="17.5513" width="72.4973" height="4.26407" fill="black"/>
<rect x="145" y="9.02295" width="72.4973" height="4.26407" fill="black"/>
<rect x="145" y="0.495117" width="72.4973" height="4.26407" fill="black"/>
<rect x="217.505" y="0.495605" width="4.26408" height="29.8514" fill="black"/>
<rect x="217.505" y="30.3467" width="4.26408" height="38.3787" fill="white"/>
<rect x="226.033" y="0.495605" width="4.26408" height="68.2301" fill="black"/>
<rect x="234.561" y="0.495605" width="4.26408" height="68.2301" fill="black"/>
<rect x="243.092" y="0.495605" width="4.26408" height="68.2301" fill="black"/>
<rect x="251.62" y="0.495605" width="4.26408" height="68.2301" fill="black"/>
<rect x="260.148" y="0.495605" width="4.26408" height="68.2301" fill="black"/>
<rect x="268.679" y="0.495605" width="4.26158" height="68.2301" fill="black"/>
<rect x="277.208" y="0.495605" width="4.26408" height="68.2301" fill="black"/>
<rect x="285.736" y="0.495605" width="4.26408" height="68.2301" fill="black"/>
<rect x="226.033" y="30.3472" width="4.26408" height="38.3785" fill="white"/>
<rect x="234.561" y="30.3472" width="4.26408" height="38.3785" fill="white"/>
<rect x="243.092" y="30.3472" width="4.26408" height="38.3785" fill="white"/>
<rect x="251.62" y="30.3472" width="4.26408" height="38.3785" fill="white"/>
<rect x="260.148" y="30.3472" width="4.26408" height="38.3785" fill="white"/>
<rect x="268.679" y="30.3472" width="4.26158" height="38.3785" fill="white"/>
<rect x="277.208" y="30.3472" width="4.26408" height="38.3785" fill="white"/>
<rect x="285.736" y="30.3472" width="4.26408" height="38.3785" fill="white"/>
</svg>
