<svg xmlns="http://www.w3.org/2000/svg" width="290" height="144.99" viewBox="0 0 290 144.99"><defs><style>.a{fill:#020203;}</style></defs><g transform="translate(-617.05 -357.725)"><rect class="a" width="144.995" height="8.528" transform="translate(617.05 494.186)"/><rect class="a" width="144.995" height="8.528" transform="translate(617.05 477.13)"/><rect class="a" width="144.995" height="8.528" transform="translate(617.05 460.068)"/><rect class="a" width="144.995" height="8.528" transform="translate(617.05 443.012)"/><rect class="a" width="144.995" height="8.528" transform="translate(617.05 425.956)"/><rect class="a" width="144.995" height="8.533" transform="translate(617.05 408.894)"/><rect class="a" width="144.995" height="8.528" transform="translate(617.05 391.838)"/><rect class="a" width="144.995" height="8.528" transform="translate(617.05 374.782)"/><rect class="a" width="144.995" height="8.528" transform="translate(617.05 357.725)"/><rect class="a" width="8.528" height="144.99" transform="translate(762.06 357.725)"/><rect class="a" width="8.528" height="144.99" transform="translate(779.117 357.725)"/><rect class="a" width="8.528" height="144.99" transform="translate(796.173 357.725)"/><rect class="a" width="8.528" height="144.99" transform="translate(813.234 357.725)"/><rect class="a" width="8.528" height="144.99" transform="translate(830.291 357.725)"/><rect class="a" width="8.528" height="144.99" transform="translate(847.347 357.725)"/><rect class="a" width="8.523" height="144.99" transform="translate(864.409 357.725)"/><rect class="a" width="8.528" height="144.99" transform="translate(881.465 357.725)"/><rect class="a" width="8.528" height="144.99" transform="translate(898.522 357.725)"/></g></svg>