<svg width="138" height="104" viewBox="0 0 138 104" fill="none" xmlns="http://www.w3.org/2000/svg">
<rect x="83" width="55" height="55" fill="#FFCC48"/>
<path d="M132.2 46.1361C135.994 43.6484 135.491 37.9368 131.321 36.1517L97.9567 21.8646C78.9827 13.8872 57.5638 14.0548 38.717 22.3278L4.54948 37.3193C1.36881 38.7149 1.10392 43.1264 4.09513 44.8923L15.863 51.838C27.9475 58.9724 42.9643 58.9329 55.012 51.7354C65.6631 45.3721 78.9223 45.2607 89.6785 51.4441L90.2216 51.7564C101.141 58.0329 114.662 57.6364 125.195 50.7301L132.2 46.1361Z" stroke="black" stroke-width="3" stroke-linecap="round"/>
<line x1="105.169" y1="101.113" x2="105.169" y2="57.6999" stroke="black" stroke-width="3" stroke-linecap="round"/>
<line x1="130.331" y1="85.1343" x2="130.331" y2="48.2264" stroke="black" stroke-width="3" stroke-linecap="round"/>
<line x1="33.7178" y1="58.5554" x2="33.7178" y2="100.774" stroke="black" stroke-width="3" stroke-linecap="round"/>
<line x1="6.39062" y1="47.9187" x2="6.39062" y2="84.7956" stroke="black" stroke-width="3" stroke-linecap="round"/>
<path d="M86.1934 63.8925V63.8942C86.1865 70.0601 81.1905 75.0558 75.0247 75.0629H75.0229H46.0127H44.5127V73.5629V71.9515V71.9498C44.5214 64.0049 50.9605 57.567 58.9043 57.5582M86.1934 63.8925L58.906 59.0582M86.1934 63.8925V26.8242V25.3242H84.6934L81.4696 25.3242L81.4679 25.3242C75.3028 25.3313 70.3072 30.3272 70.3 36.4928V36.4946V46.1624M86.1934 63.8925L71.8 46.1641M58.9043 57.5582L58.906 59.0582M58.9043 57.5582C58.9043 57.5582 58.9042 57.5582 58.9042 57.5582L58.906 59.0582M58.9043 57.5582C65.1952 57.5504 70.2931 52.4528 70.3 46.1624M58.906 59.0582C66.0238 59.0494 71.7922 53.2818 71.8 46.1641M70.3 46.1624V46.1641H71.8M70.3 46.1624L71.8 46.1641" fill="black" stroke="black" stroke-width="3" stroke-linecap="round"/>
<path d="M82.2597 75.1962L81.9666 73.3141L80.2057 74.0403C78.9811 74.5453 77.6788 74.831 76.3555 74.8844L74.4344 74.9619L74.977 76.8065L82.0921 100.995L82.4088 102.071H83.5311H84.6935H86.4452L86.1756 100.341L82.2597 75.1962Z" stroke="black" stroke-width="3" stroke-linecap="round"/>
<path d="M51.4901 74.8831H50.2134L50.0094 76.1434L46.0935 100.332L45.8119 102.071H47.5742H48.7374H49.8598L50.1765 100.995L57.2906 76.8063L57.8331 74.9619L55.9121 74.8843C54.959 74.8458 54.3256 74.8548 53.4571 74.867C52.9296 74.8744 52.3154 74.8831 51.4901 74.8831Z" stroke="black" stroke-width="3" stroke-linecap="round"/>
<line x1="58.6723" y1="80.0115" x2="77.5131" y2="87.405" stroke="black" stroke-width="3" stroke-linecap="round"/>
<line x1="74.7815" y1="82.7988" x2="56.0303" y2="90.0218" stroke="black" stroke-width="3" stroke-linecap="round"/>
</svg>
