<svg width="110" height="131" viewBox="0 0 110 131" fill="none" xmlns="http://www.w3.org/2000/svg">
<rect x="55" y="22" width="55" height="55" fill="#FFCC48"/>
<path d="M39.6639 0C32.3218 0.00549316 26.3717 5.95653 26.3662 13.2976C26.3763 20.637 32.3247 26.5844 39.6639 26.5917C47.005 26.5844 52.9534 20.6351 52.9615 13.294C52.9543 5.95378 47.0042 0.00549316 39.6639 0Z" fill="black"/>
<path d="M59.5894 27.7402C52.2454 27.7402 46.2915 33.6931 46.2905 41.037C46.2905 48.3818 52.2437 54.3356 59.5874 54.3356C66.9313 54.3365 72.886 48.3836 72.886 41.0388V41.0361C72.8768 33.6968 66.9294 27.7494 59.5894 27.7402Z" fill="black"/>
<path d="M89.1401 86.6815H87.0227H82.9092H64.4006C57.3584 86.7417 51.698 92.4977 51.7573 99.5399C51.8165 106.498 57.4422 112.124 64.4006 112.182H82.9111L87.019 112.183H88.2533C90.3204 112.185 92.3349 111.533 94.0112 110.322L94.0149 81.8069C94.0112 84.4985 91.8308 86.6788 89.1401 86.6815ZM69.2979 103.332C67.2864 105.344 64.0241 105.345 62.0114 103.334C59.998 101.323 59.9972 98.0596 62.0088 96.0471C64.0205 94.0345 67.2827 94.0327 69.2962 96.0443C70.2579 97.0151 70.8001 98.3239 70.8065 99.6903C70.8056 101.057 70.2634 102.365 69.2979 103.332Z" fill="black"/>
<path d="M60.5443 64.2152H8.22864C4.78882 64.2152 2.00049 61.4269 2.00049 57.987C2.00049 54.5479 4.78882 51.7588 8.22864 51.7588H21.9485" stroke="black" stroke-width="2.88504" stroke-linecap="round" stroke-linejoin="round"/>
<path d="M78.4178 64.1649C81.9735 64.1649 84.8556 67.0471 84.8556 70.6028V122.283C84.8556 125.839 81.9735 128.721 78.4178 128.721H8.43738C4.88281 128.721 2.00049 125.839 2.00049 122.283V57.9368" stroke="black" stroke-width="3" stroke-linecap="round" stroke-linejoin="round"/>
<path d="M78.4178 64.1651H8.22864C4.78882 64.1651 2.00049 61.3769 2.00049 57.9369C2.00049 54.497 4.78882 51.7087 8.22864 51.7087H21.9485" stroke="black" stroke-width="3" stroke-linecap="round" stroke-linejoin="round"/>
<path d="M75.8666 51.7087H88.2773C91.9607 51.7087 94.9474 54.6957 94.9474 58.379V122.051C94.9474 125.734 91.9607 128.721 88.2773 128.721H69.9253" stroke="black" stroke-width="3" stroke-linecap="round" stroke-linejoin="round"/>
<line x1="46.5767" y1="57.8088" x2="46.5767" y2="62.7155" stroke="black" stroke-width="3" stroke-linecap="round" stroke-linejoin="round"/>
<line x1="34.623" y1="49.3057" x2="34.623" y2="54.2123" stroke="black" stroke-width="3" stroke-linecap="round" stroke-linejoin="round"/>
<line x1="15.3198" y1="83.0198" x2="15.3198" y2="96.5847" stroke="black" stroke-width="3" stroke-linecap="round" stroke-linejoin="round"/>
<line x1="73.0405" y1="16.3223" x2="73.0405" y2="20.839" stroke="black" stroke-width="3" stroke-linecap="round" stroke-linejoin="round"/>
<line x1="69.127" y1="17.0806" x2="73.7882" y2="17.0806" stroke="black" stroke-width="3" stroke-linecap="round" stroke-linejoin="round"/>
<path d="M14.7383 103.706C14.2307 103.199 13.4075 103.199 12.9011 103.707C12.3931 104.215 12.394 105.037 12.9016 105.545C13.4084 106.051 14.2317 106.051 14.7383 105.544C14.9819 105.301 15.1184 104.972 15.1194 104.629C15.1184 104.283 14.9819 103.951 14.7383 103.706Z" fill="black"/>
</svg>
